<svg width="50" height="50" viewBox="0 0 50 50" fill="none" xmlns="http://www.w3.org/2000/svg">
<path fill-rule="evenodd" clip-rule="evenodd" d="M46.7209 14.9414C46.7205 14.1203 46.5451 13.3948 46.1904 12.7723C45.842 12.1599 45.3199 11.6469 44.6201 11.241C38.8419 7.90608 33.0582 4.58137 27.282 1.24309C25.7248 0.343323 24.2148 0.376045 22.6691 1.28886C20.3693 2.64655 8.85468 9.24988 5.42349 11.2392C4.01052 12.058 3.32285 13.3111 3.32252 14.9398C3.32031 21.6466 3.32252 28.353 3.32031 35.06C3.32065 35.8629 3.48867 36.5743 3.82775 37.1877C4.17633 37.8184 4.70547 38.3457 5.42162 38.7607C8.85298 40.75 20.3691 47.3527 22.6685 48.7108C24.2148 49.6241 25.7248 49.6566 27.2825 48.7565C33.0589 45.4182 38.843 42.0936 44.622 38.7587C45.3381 38.3438 45.8673 37.8162 46.2158 37.186C46.5544 36.5726 46.7228 35.8612 46.723 35.0581C46.723 35.0581 46.723 21.6483 46.7209 14.9414Z" fill="#A9B9CB"/>
<path fill-rule="evenodd" clip-rule="evenodd" d="M27.2429 1.28686C25.6882 0.389305 24.1808 0.422027 22.6376 1.33247C20.3415 2.6866 8.84569 9.2728 5.42009 11.257C4.00934 12.0737 3.32285 13.3235 3.32252 14.9481C3.32031 21.6373 3.32252 28.3264 3.32031 35.0159C3.32065 35.8168 3.48833 36.5264 3.8269 37.138C4.17497 37.7672 4.70327 38.2932 5.41822 38.707C6.20304 39.1616 7.41188 39.8578 8.83603 40.6771L40.556 8.95712C36.1177 6.40144 31.6782 3.84779 27.2429 1.28686Z" fill="#7F8B99"/>
<path fill-rule="evenodd" clip-rule="evenodd" d="M29.5072 21.9428L36.2616 21.9905C36.2616 19.1763 33.4129 12.2844 25.2458 12.2844C20.0424 12.2844 13.0471 15.5925 13.0471 25.1035C13.0471 34.6143 19.9046 37.7157 25.2458 37.7157C33.8955 37.7157 35.9626 31.7305 35.9626 28.3482L29.5189 27.9797C29.5189 27.9797 29.6913 31.8919 25.2115 31.8919C21.0763 31.8919 20.3863 26.8263 20.3863 25.1035C20.3863 22.4845 21.3176 18.2804 25.2115 18.2804C29.1055 18.2804 29.5072 21.9428 29.5072 21.9428Z" fill="white"/>
</svg>
