<svg width="50" height="50" viewBox="0 0 50 50" fill="none" xmlns="http://www.w3.org/2000/svg">
<g clip-path="url(#clip0_35_218)">
<path fill-rule="evenodd" clip-rule="evenodd" d="M4.54496 45.0016L0 0H49.9418L45.392 44.9942L24.9407 50L4.54496 45.0016Z" fill="#0071BC"/>
<path fill-rule="evenodd" clip-rule="evenodd" d="M25.0129 46.1714L41.5181 42.1629L45.3853 3.74768H25.0129V46.1714Z" fill="#29ABE2"/>
<path fill-rule="evenodd" clip-rule="evenodd" d="M10.4033 20.2811L10.9508 25.7922L25.0128 20.2811V14.761L10.4033 20.2811Z" fill="#B3B3B3"/>
<path fill-rule="evenodd" clip-rule="evenodd" d="M40.5871 8.86853L25.0129 14.7609V20.281L40.0501 14.3797L40.5871 8.86853Z" fill="#E6E6E6"/>
<path fill-rule="evenodd" clip-rule="evenodd" d="M25.0128 34.7008L24.9644 34.7073L17.9908 33.0539L17.5351 28.658H11.2588L12.1347 37.3182L24.9631 40.454L25.0128 40.4436V34.7008Z" fill="#E6E6E6"/>
<path fill-rule="evenodd" clip-rule="evenodd" d="M25.0129 20.281V25.7921H32.6481L31.9541 32.9976L25.0129 34.7056V40.4479L37.7989 37.3122L39.4825 20.281H25.0129Z" fill="white"/>
<path fill-rule="evenodd" clip-rule="evenodd" d="M25.0128 20.281H10.4033L10.9508 25.7921H25.0128V20.281Z" fill="#E6E6E6"/>
<path fill-rule="evenodd" clip-rule="evenodd" d="M25.0128 14.3797V8.86853H24.9495H9.29346L9.84744 14.3797H25.0128Z" fill="#E6E6E6"/>
<path fill-rule="evenodd" clip-rule="evenodd" d="M25.0129 8.86853V14.3106V14.3797H40.0501L40.5871 8.86853H25.0129Z" fill="white"/>
</g>
<defs>
<clipPath id="clip0_35_218">
<rect width="50" height="50" fill="white"/>
</clipPath>
</defs>
</svg>
