<svg width="50" height="50" viewBox="0 0 50 50" fill="none" xmlns="http://www.w3.org/2000/svg">
<g clip-path="url(#clip0_33_51)">
<mask id="mask0_33_51" style="mask-type:luminance" maskUnits="userSpaceOnUse" x="0" y="0" width="50" height="50">
<path d="M49.4141 0.683594H0.585938V49.3217H49.4141V0.683594Z" fill="white"/>
</mask>
<g mask="url(#mask0_33_51)">
<path fill-rule="evenodd" clip-rule="evenodd" d="M48.3069 22.8355L27.0708 1.60097C25.8487 0.377803 23.8651 0.377803 22.6413 1.60097L18.2317 6.01064L23.8256 11.6045C25.1256 11.1653 26.6161 11.4599 27.6525 12.4963C28.6937 13.5391 28.9861 15.0424 28.5362 16.3467L33.9274 21.7378C35.2317 21.2884 36.7365 21.5793 37.7782 22.6226C39.2341 24.0779 39.2341 26.4367 37.7782 27.8931C36.3219 29.3494 33.9631 29.3494 32.5062 27.8931C31.4111 26.7969 31.1405 25.1885 31.695 23.8394L26.6673 18.8117L26.6668 32.0423C27.0217 32.2185 27.3569 32.4527 27.6525 32.7473C29.1083 34.2025 29.1083 36.5614 27.6525 38.0188C26.1961 39.4747 23.8362 39.4747 22.382 38.0188C20.9262 36.5614 20.9262 34.2025 22.382 32.7473C22.7417 32.3881 23.1579 32.1165 23.602 31.934V18.5801C23.1579 18.3986 22.7422 18.1286 22.382 17.7668C21.2789 16.6652 21.0137 15.0467 21.5788 13.6922L16.0651 8.17732L1.50395 22.7373C0.280258 23.9615 0.280258 25.9452 1.50395 27.1684L22.7401 48.4034C23.9627 49.6266 25.9458 49.6266 27.17 48.4034L48.3069 27.2671C49.5301 26.0434 49.5301 24.0587 48.3069 22.8355Z" fill="#DE4C36"/>
</g>
</g>
<defs>
<clipPath id="clip0_33_51">
<rect width="50" height="50" fill="white"/>
</clipPath>
</defs>
</svg>
