<svg width="50" height="50" viewBox="0 0 50 50" fill="none" xmlns="http://www.w3.org/2000/svg">
<path d="M13.0969 0.585938H10.8962V7.17049H13.097V4.9656H15.1103V7.17049H17.3111V0.585938H15.1102V2.76031H13.0969V0.585938Z" fill="black"/>
<path d="M18.2678 2.76947H20.2052L20.2053 7.17049H22.4062V2.76947H24.3446V0.585938H18.2678V2.76947Z" fill="black"/>
<path d="M25.3088 0.585938H27.6037L29.0153 2.89955L30.4255 0.585938H32.7211V7.17049H30.5294V3.90683L29.0153 6.248H28.9774L27.4623 3.90683V7.17049H25.3088V0.585938Z" fill="black"/>
<path d="M36.0181 0.585938H33.8167V7.17049H39.1131V4.99401H36.0181V0.585938Z" fill="black"/>
<path fill-rule="evenodd" clip-rule="evenodd" d="M10.8256 45.4923L7.67749 10.1819H42.2705L39.119 45.4868L24.9529 49.4141L10.8256 45.4923Z" fill="#E44D26"/>
<path fill-rule="evenodd" clip-rule="evenodd" d="M24.9739 46.4122L36.4208 43.2387L39.114 13.069H24.9739V46.4122Z" fill="#F16529"/>
<path d="M19.2435 26.1652H24.974V30.4958H15.2828L14.1147 17.3998H24.974V21.7305H18.8477L19.2435 26.1652Z" fill="#EBEBEB"/>
<path d="M24.955 37.4175L24.974 37.4125V41.9182L24.9541 41.9238L16.083 39.4611L15.4763 32.6613H19.8236L20.1319 36.1152L24.955 37.4175Z" fill="#EBEBEB"/>
<path d="M24.959 17.3998H35.8074L35.4196 21.7305H24.959V17.3998Z" fill="white"/>
<path d="M24.959 30.4957V26.1652H35.0256L34.9199 27.3281L33.8371 39.461L24.959 41.9215V37.416L29.7891 36.1123L30.2917 30.4957H24.959Z" fill="white"/>
</svg>
