<svg width="50" height="50" viewBox="0 0 50 50" fill="none" xmlns="http://www.w3.org/2000/svg">
<g clip-path="url(#clip0_34_169)">
<mask id="mask0_34_169" style="mask-type:luminance" maskUnits="userSpaceOnUse" x="0" y="0" width="50" height="50">
<path d="M50 0H0V50H50V0Z" fill="white"/>
</mask>
<g mask="url(#mask0_34_169)">
<path fill-rule="evenodd" clip-rule="evenodd" d="M0 0H50V50H0V0Z" fill="#F7DF1E"/>
<path fill-rule="evenodd" clip-rule="evenodd" d="M13.1468 41.7836L16.9732 39.468C17.7114 40.7768 18.3829 41.8841 19.9936 41.8841C21.5375 41.8841 22.511 41.2802 22.511 38.931V22.9548H27.2097V38.9974C27.2097 43.8641 24.357 46.0792 20.195 46.0792C16.4362 46.0792 14.2542 44.1325 13.1467 41.7833" fill="black"/>
<path fill-rule="evenodd" clip-rule="evenodd" d="M29.762 41.2802L33.5878 39.0651C34.595 40.7098 35.904 41.918 38.2197 41.918C40.1666 41.918 41.4081 40.9446 41.4081 39.602C41.4081 37.991 40.1328 37.4204 37.9846 36.4809L36.8103 35.9771C33.4202 34.5342 31.1713 32.7218 31.1713 28.8956C31.1713 25.3714 33.8564 22.6863 38.0519 22.6863C41.0391 22.6863 43.1871 23.7268 44.7308 26.4455L41.0724 28.7948C40.2668 27.3516 39.3945 26.7812 38.052 26.7812C36.6759 26.7812 35.8032 27.6538 35.8032 28.7948C35.8032 30.2044 36.6759 30.7751 38.6895 31.6478L39.8641 32.1512C43.8582 33.863 46.107 35.6082 46.107 39.5349C46.107 43.7641 42.7842 46.0797 38.3205 46.0797C33.9573 46.0797 31.1378 43.999 29.7621 41.2802" fill="black"/>
</g>
</g>
<defs>
<clipPath id="clip0_34_169">
<rect width="50" height="50" fill="white"/>
</clipPath>
</defs>
</svg>
