<svg width="50" height="50" viewBox="0 0 50 50" fill="none" xmlns="http://www.w3.org/2000/svg">
<path d="M39.0944 38.9488C40.8201 38.2189 42.8775 37.9533 45.5323 38.0195C45.4576 37.5228 44.5089 36.9328 43.8139 36.5006C43.5806 36.3555 43.3759 36.2282 43.2424 36.1281C42.1805 35.3649 41.0522 34.5683 39.9241 33.8717C39.5606 33.6496 39.0374 33.4644 38.5338 33.286C38.2098 33.1713 37.8941 33.0595 37.6342 32.9426C37.3688 32.8344 37.0072 32.7262 36.6169 32.6094C35.6896 32.3319 34.5999 32.0059 34.2495 31.5157C33.3471 30.3426 32.7174 28.9241 32.0886 27.5076C32.0237 27.3612 31.9587 27.2149 31.8934 27.0689C31.5643 26.3165 31.1981 25.5493 30.8298 24.7777C30.4186 23.9159 30.0048 23.0488 29.637 22.1908C29.4767 21.8414 29.3548 21.511 29.2349 21.1857C29.0816 20.7699 28.9313 20.3625 28.7079 19.9344C26.2852 15.2555 22.7016 11.3396 18.3544 8.58535C16.9273 7.68934 15.3347 6.85952 13.5757 6.29556C13.0386 6.13449 12.4436 6.10856 11.8427 6.08238C11.3298 6.06003 10.8128 6.0375 10.3238 5.93062H9.62678C9.22444 5.81885 8.86724 5.49621 8.53498 5.19608C8.374 5.05068 8.21888 4.91058 8.0673 4.80228C7.03847 4.1055 6.00985 3.64062 4.78199 3.14307C4.35065 2.94405 3.1228 2.47939 2.69144 2.84454C2.42581 2.91095 2.29319 3.01046 2.22678 3.27589C1.96135 3.67414 2.19389 4.27142 2.3596 4.63636C2.68852 5.33808 3.10444 5.85145 3.53063 6.37751C3.74942 6.64756 3.97091 6.92095 4.18473 7.22488C4.28686 7.36903 4.39333 7.51645 4.50161 7.66633C4.99139 8.34442 5.51778 9.07319 5.84394 9.77988C6.30418 10.7714 6.63223 11.8194 6.95909 12.8637C7.24491 13.7769 7.52982 14.6871 7.90139 15.554C8.19993 16.251 8.66458 17.0473 9.09593 17.6778C9.23123 17.8624 9.40759 18.0287 9.58613 18.197C9.88922 18.4827 10.1985 18.7743 10.3238 19.1712C10.6465 19.709 10.0541 21.249 9.69404 22.1848C9.60978 22.4038 9.53826 22.5897 9.49418 22.7219C8.63127 25.4429 8.79719 29.2259 9.79274 31.5819C9.82829 31.6649 9.86364 31.7492 9.89918 31.8342C10.2618 32.7002 10.6509 33.6298 11.6178 33.8717C11.6479 33.8416 11.6508 33.8319 11.6573 33.8273C11.6651 33.8218 11.6781 33.8235 11.7506 33.8053C11.7992 33.4238 11.8406 33.0453 11.8813 32.6721C12.0355 31.2596 12.1813 29.9232 12.6798 28.7945C12.9173 28.2117 13.3091 27.7412 13.691 27.2827C13.8963 27.0362 14.0986 26.7933 14.2726 26.5381C14.4832 26.6644 14.5601 26.951 14.6391 27.2454C14.6846 27.4149 14.7308 27.587 14.8037 27.7326C14.835 27.8073 14.8665 27.8825 14.8982 27.9582C15.3028 28.9246 15.7382 29.9643 16.2305 30.9183C17.3256 33.0421 18.5536 35.0993 19.9471 36.9577C20.4116 37.6214 21.0756 38.3516 21.6728 38.9488C21.7636 39.0283 21.8584 39.0961 21.9516 39.1629C22.1309 39.2913 22.3049 39.416 22.436 39.6125H22.5024V39.7122C21.8724 39.4812 21.3886 38.9843 20.9164 38.4992C20.6424 38.2178 20.3723 37.9403 20.0798 37.7212C18.5865 36.5928 16.7947 34.9003 15.7659 33.2744C15.4419 32.5765 15.0991 31.8972 14.7516 31.2085C14.6366 30.9805 14.521 30.7514 14.4054 30.5201C14.4054 30.5201 14.4055 30.4868 14.4054 30.4537C14.2786 30.6229 14.2595 30.7919 14.2366 30.9954C14.2236 31.1112 14.2092 31.2383 14.1731 31.3829C14.0501 31.856 13.9891 32.3479 13.9302 32.8235C13.7826 34.0155 13.6477 35.1039 12.5802 35.5309C10.888 36.2278 9.6268 34.4023 9.09594 33.5729C7.40364 30.8187 6.93897 26.1729 8.13351 22.4231C8.22593 22.1346 8.29023 21.8259 8.35434 21.5181C8.47452 20.941 8.59405 20.3672 8.89692 19.9344C8.83034 19.5355 8.60115 19.329 8.37717 19.1271C8.26571 19.0266 8.15552 18.9272 8.06732 18.8061C7.60265 18.1757 7.20461 17.4455 6.83947 16.7487C6.30888 15.713 5.89388 14.5232 5.49168 13.3702C5.36553 13.0086 5.24065 12.6506 5.11385 12.3021C5.00057 12.0108 4.92679 11.7195 4.85399 11.4321C4.77748 11.13 4.70205 10.8322 4.58298 10.5433C4.26929 9.86357 3.74985 9.18403 3.26759 8.55313C3.13759 8.38306 3.0103 8.21652 2.89047 8.05448C2.7612 7.86896 2.59003 7.65394 2.39922 7.41425C1.46357 6.23886 0.0556812 4.47023 0.799923 2.67862C2.1937 -0.739301 7.07202 1.84881 8.96313 3.04356C9.15224 3.16515 9.35235 3.34167 9.55897 3.52393C9.86002 3.78948 10.1749 4.06724 10.4897 4.20501C10.9047 4.22167 11.3196 4.24655 11.7344 4.27144C12.1492 4.29631 12.5639 4.32117 12.9786 4.33783C13.1144 4.36962 13.2495 4.4009 13.3838 4.43199C14.7908 4.75783 16.1051 5.0622 17.226 5.69829C22.9338 9.05001 26.6505 12.468 30.0683 18.1093C30.5324 18.8685 30.849 19.6679 31.1714 20.4821C31.3563 20.9489 31.543 21.4206 31.7606 21.8923C32.5902 23.8169 33.5198 25.8409 34.4818 27.6662C34.6027 27.9082 34.7159 28.1579 34.8293 28.4082C35.1201 29.0505 35.4125 29.6961 35.8424 30.2214C35.9969 30.4423 36.3427 30.5602 36.6741 30.673C36.8406 30.7298 37.0034 30.7853 37.1365 30.852C37.5657 31.073 38.0306 31.2737 38.4992 31.4761C39.2262 31.7899 39.9622 32.1077 40.5878 32.5112C42.5124 33.7058 44.3708 35.1324 46.0632 36.5929C46.4052 36.8989 46.6887 37.2733 46.9719 37.6472C47.2107 37.9625 47.4492 38.2774 47.7223 38.5508V38.8493C47.1915 39.0152 46.6604 39.1812 46.1296 39.314C45.5519 39.4624 45.0071 39.5206 44.4666 39.5784C43.9203 39.6367 43.3783 39.6946 42.8111 39.8448C42.7396 39.8652 42.6664 39.8864 42.5917 39.9079C41.9385 40.0964 41.1765 40.3163 40.5214 40.3759C40.5545 40.409 40.5878 40.4421 40.5878 40.4421C40.9076 41.3525 42.2676 42.1353 43.3822 42.7768C43.7708 43.0004 44.1295 43.2068 44.4039 43.3956C45.6982 44.3247 46.8927 45.453 47.8551 46.7471C48.0206 46.9125 48.1861 47.0697 48.3515 47.2269C48.5179 47.385 48.6843 47.5431 48.8506 47.7095C48.9631 47.8701 49.0366 48.0541 49.109 48.2352C49.186 48.4279 49.2617 48.6173 49.3815 48.7714V48.8709C49.0912 48.7673 48.8917 48.5599 48.6937 48.3542C48.5749 48.2307 48.4566 48.1077 48.3196 48.0082C48.007 47.7951 47.6946 47.5638 47.3821 47.3323C46.9646 47.0231 46.5471 46.7141 46.1296 46.4485C45.4875 46.043 44.7937 45.7234 44.0965 45.4023C43.4245 45.093 42.7493 44.782 42.1141 44.3911C41.3842 43.9265 40.6873 43.3956 39.9905 42.8647C39.3598 42.4 38.6633 41.5038 38.2648 40.8403C38.1644 40.6826 38.1012 40.5125 38.0404 40.3486C37.9604 40.1335 37.8846 39.9292 37.7338 39.7784C37.7835 39.307 38.2414 39.188 38.6774 39.0747C38.8244 39.0365 38.9689 38.999 39.0944 38.9488Z" fill="#00546B"/>
<path d="M10.3237 9.34854C10.722 9.24902 11.12 9.1824 11.6843 9.1824C11.7894 9.28766 11.9206 9.37723 12.0532 9.46767C12.2552 9.60548 12.4601 9.74532 12.5803 9.9458C12.654 10.049 12.7015 10.1522 12.7489 10.2555C12.8084 10.3846 12.8678 10.5137 12.9785 10.6428C12.9785 11.4391 12.7464 11.9699 12.2815 12.3021C12.2815 12.3021 12.2484 12.3351 12.2153 12.3685C12.0827 12.1032 11.9584 11.8381 11.8342 11.573C11.7096 11.3071 11.585 11.0412 11.4519 10.7754C11.3227 10.5945 11.1733 10.4287 11.0235 10.2624C10.7886 10.0015 10.5523 9.73909 10.3901 9.41495H10.3237V9.34854Z" fill="#00546B"/>
</svg>
