<svg width="50" height="50" viewBox="0 0 50 50" fill="none" xmlns="http://www.w3.org/2000/svg">
<mask id="mask0_34_94" style="mask-type:luminance" maskUnits="userSpaceOnUse" x="1" y="0" width="48" height="50">
<path d="M48.7305 0.585938H1.36719V49.4141H48.7305V0.585938Z" fill="white"/>
</mask>
<g mask="url(#mask0_34_94)">
<mask id="mask1_34_94" style="mask-type:luminance" maskUnits="userSpaceOnUse" x="1" y="0" width="48" height="50">
<path d="M48.7156 0.585938H1.36719V49.4141H48.7156V0.585938Z" fill="white"/>
</mask>
<g mask="url(#mask1_34_94)">
<path fill-rule="evenodd" clip-rule="evenodd" d="M48.5321 29.8247C48.2482 28.9649 47.5045 28.366 46.5427 28.2223C46.0892 28.1546 45.5699 28.1834 44.9553 28.3101C43.8841 28.5311 43.0893 28.6152 42.5093 28.6316C44.6985 24.9352 46.4788 20.7201 47.5036 16.7522C49.1607 10.3364 48.2751 7.41363 47.2404 6.09147C44.5018 2.59228 40.5063 0.712336 35.6858 0.654708C33.1146 0.623325 30.857 1.13104 29.6795 1.49605C28.5831 1.30272 27.4041 1.19468 26.167 1.17466C23.8485 1.13771 21.7997 1.64312 20.0491 2.68195C19.0797 2.35433 17.5245 1.89233 15.7282 1.59742C11.5033 0.903807 8.09837 1.44432 5.60781 3.20376C2.59195 5.33411 1.1938 9.03539 1.45241 14.2049C1.53443 15.8463 2.45264 20.8399 3.89824 25.576C4.72908 28.298 5.61503 30.5586 6.5315 32.2953C7.83112 34.758 9.22172 36.2083 10.7829 36.729C11.6581 37.0206 13.2479 37.2247 14.9202 35.8322C15.1321 36.0888 15.4148 36.3438 15.7902 36.5808C16.2667 36.8813 16.8496 37.1269 17.4315 37.2725C19.5292 37.7969 21.4939 37.6657 23.1702 36.9308C23.1804 37.2288 23.1884 37.5137 23.1952 37.7597C23.2064 38.1587 23.2173 38.5498 23.232 38.9155C23.3312 41.3893 23.4996 43.3126 23.9982 44.6583C24.0255 44.7324 24.0624 44.8452 24.1013 44.9646C24.35 45.7265 24.7661 47.0015 25.8242 48.0001C26.9202 49.0345 28.2458 49.3518 29.4597 49.3517C30.0686 49.3517 30.6496 49.2719 31.159 49.1626C32.9754 48.7734 35.0382 48.1804 36.5304 46.0557C37.9412 44.0471 38.627 41.0218 38.7511 36.2548C38.7671 36.12 38.7821 35.9913 38.7963 35.8686C38.806 35.7858 38.8159 35.7013 38.8258 35.6168L39.1583 35.646L39.2438 35.6518C41.0938 35.7361 43.3558 35.3437 44.745 34.6985C45.8427 34.1891 49.3603 32.332 48.5321 29.8247Z" fill="black"/>
<path fill-rule="evenodd" clip-rule="evenodd" d="M45.3689 30.3124C39.8684 31.447 39.4903 29.5847 39.4903 29.5847C45.2979 20.967 47.7258 10.0282 45.6306 7.35097C39.9149 0.048035 30.0207 3.50185 29.8556 3.59151L29.8024 3.60103C28.7157 3.37544 27.4995 3.24106 26.1326 3.21874C23.6437 3.17796 21.7558 3.87123 20.3232 4.95763C20.3232 4.95763 2.67295 -2.31359 3.49384 14.1025C3.66847 17.595 8.49944 40.5277 14.2616 33.601C16.3677 31.0681 18.4026 28.9265 18.4026 28.9265C19.4133 29.5978 20.6232 29.9403 21.8917 29.8174L21.9902 29.7337C21.9597 30.0481 21.9736 30.3558 22.0298 30.7199C20.5453 32.3784 20.9815 32.6696 18.014 33.2805C15.0114 33.8992 16.7754 35.001 17.927 35.2889C19.3232 35.638 22.5533 36.1326 24.7358 33.0773L24.6488 33.426C25.2304 33.8918 25.6389 36.4561 25.5704 38.7808C25.5019 41.1054 25.4562 42.7014 25.9145 43.9479C26.3727 45.1945 26.8296 47.9994 30.7305 47.1635C33.9901 46.4649 35.6792 44.6548 35.9142 41.6353C36.0809 39.4887 36.4583 39.806 36.4822 37.8868L36.7848 36.9782C37.1339 34.0684 36.8403 33.1296 38.8485 33.5662L39.3365 33.6091C40.8146 33.6763 42.7491 33.3713 43.8845 32.8435C46.3294 31.709 47.7793 29.8146 45.3687 30.3124H45.3689Z" fill="#336791"/>
<path fill-rule="evenodd" clip-rule="evenodd" d="M21.3565 15.6644C20.861 15.5954 20.4119 15.6593 20.1848 15.8312C20.057 15.928 20.0175 16.0401 20.0069 16.1172C19.9784 16.3216 20.1216 16.5476 20.2095 16.6641C20.4584 16.994 20.8221 17.2208 21.1821 17.2708C21.2342 17.278 21.2861 17.2815 21.3377 17.2815C21.938 17.2815 22.4837 16.8141 22.5318 16.4692C22.5919 16.0371 21.9647 15.749 21.3565 15.6644Z" fill="white"/>
<path fill-rule="evenodd" clip-rule="evenodd" d="M37.7774 15.678H37.7773C37.7301 15.3394 37.1273 15.2429 36.5554 15.3223C35.9844 15.4019 35.4305 15.6596 35.4768 15.9991C35.5139 16.2631 35.9904 16.7138 36.5547 16.7136C36.6022 16.7136 36.6504 16.7104 36.6988 16.7037C37.0754 16.6514 37.3517 16.4124 37.4829 16.2745C37.6829 16.0645 37.7985 15.8303 37.7774 15.678Z" fill="white"/>
<path fill-rule="evenodd" clip-rule="evenodd" d="M47.1993 30.1834C46.9895 29.5492 46.3145 29.345 45.1929 29.5767C41.8628 30.2641 40.6703 29.7879 40.2786 29.4996C42.8671 25.5561 44.9965 20.7897 46.1452 16.3424C46.6894 14.2357 46.99 12.2794 47.0145 10.6849C47.0416 8.93434 46.7436 7.64828 46.1288 6.86261C43.6499 3.69517 40.012 1.99621 35.6081 1.94951C32.5806 1.91551 30.0227 2.69036 29.5268 2.90818C28.4826 2.64848 27.3441 2.48905 26.1049 2.46871C23.832 2.43196 21.8676 2.97609 20.241 4.08512C19.5345 3.82224 17.7086 3.19545 15.4758 2.8358C11.6152 2.21414 8.54764 2.68511 6.35846 4.23602C3.7463 6.08666 2.54039 9.39471 2.77407 14.0681C2.8527 15.6405 3.74849 20.4774 5.16238 25.1097C7.02341 31.2065 9.04627 34.658 11.1749 35.368C11.424 35.4511 11.7113 35.5092 12.028 35.5092C12.8045 35.5092 13.7564 35.1592 14.7469 33.9684C16.3921 31.9892 17.9281 30.3307 18.4943 29.7281C19.331 30.1773 20.2502 30.428 21.1904 30.4532C21.1921 30.4778 21.1946 30.5024 21.1968 30.5269C21.0082 30.7507 20.8534 30.9467 20.7216 31.1141C20.0702 31.941 19.9346 32.1132 17.8377 32.5449C17.2413 32.668 15.6569 32.9945 15.6339 34.105C15.6086 35.3182 17.5063 35.8277 17.7226 35.8817C18.4762 36.0704 19.202 36.1635 19.8943 36.1635C21.5781 36.1634 23.0596 35.61 24.2438 34.5393C24.2073 38.8647 24.3878 43.1268 24.907 44.4255C25.3323 45.4885 26.3715 48.0866 29.6538 48.0864C30.1352 48.0864 30.6655 48.0305 31.2487 47.9055C34.6742 47.1709 36.1616 45.657 36.7372 42.3192C37.0451 40.5353 37.5736 36.2755 37.8221 33.9906C38.3466 34.1543 39.022 34.2292 39.7519 34.2291C41.2745 34.2291 43.0313 33.9056 44.1332 33.3941C45.3708 32.8194 47.6044 31.4088 47.1993 30.1834ZM39.0417 14.7432C39.0303 15.4178 38.9375 16.0302 38.839 16.6694C38.7332 17.3569 38.6236 18.0677 38.5961 18.9306C38.5688 19.7703 38.6737 20.6433 38.7752 21.4875C38.9802 23.1927 39.1904 24.9483 38.3763 26.6807C38.2498 26.4559 38.1276 26.2107 38.0157 25.9392C37.9145 25.6939 37.6948 25.3 37.3907 24.7547C36.2071 22.6321 33.4355 17.6618 34.8544 15.6336C35.2769 15.0297 36.3494 14.4092 39.0417 14.7432ZM35.7784 3.31552C39.7242 3.40266 42.8453 4.87878 45.0553 7.70263C46.7502 9.86864 44.8839 19.7243 39.4807 28.2268C39.4274 28.1591 39.373 28.0906 39.3168 28.0204C39.2944 27.9923 39.2716 27.9638 39.2485 27.9349C40.6447 25.629 40.3717 23.3476 40.1286 21.3249C40.0288 20.4948 39.9345 19.7107 39.9585 18.9744C39.9833 18.1936 40.0865 17.5243 40.1863 16.8769C40.3091 16.0792 40.4339 15.2538 40.3994 14.2807C40.4251 14.1787 40.4354 14.058 40.4221 13.9149C40.3341 12.9817 39.2688 10.1892 37.0973 7.66141C35.9097 6.279 34.1775 4.73182 31.8125 3.68829C32.8298 3.47746 34.2209 3.28085 35.7784 3.31552ZM13.6988 33.097C12.6076 34.409 11.854 34.1575 11.6061 34.075C9.99139 33.5363 8.11789 30.1236 6.46606 24.7118C5.03674 20.0291 4.20142 15.3204 4.13537 14C3.92662 9.82411 4.93888 6.91378 7.14413 5.34985C10.733 2.80474 16.6335 4.32809 19.0045 5.10076C18.9703 5.13432 18.9348 5.16582 18.9011 5.19994C15.0105 9.12921 15.1028 15.8424 15.1124 16.2527C15.112 16.411 15.1253 16.6352 15.1435 16.9435C15.2104 18.0726 15.3349 20.1741 15.0022 22.554C14.6929 24.7655 15.3746 26.9301 16.8722 28.4927C17.0273 28.6544 17.1891 28.8062 17.3563 28.9492C16.6896 29.6632 15.2408 31.2418 13.6988 33.097ZM17.8563 27.5495C16.6493 26.2901 16.1011 24.5383 16.3521 22.7428C16.7036 20.2287 16.5738 18.0391 16.5042 16.8629C16.4944 16.6983 16.4858 16.5541 16.4806 16.4402C17.049 15.9363 19.683 14.525 21.5612 14.9554C22.4185 15.1517 22.9407 15.7353 23.1579 16.7394C24.2817 21.9371 23.3067 24.1036 22.5232 25.8444C22.3617 26.2031 22.2092 26.5421 22.0788 26.8929L21.9779 27.164C21.7222 27.8495 21.4844 28.4867 21.337 29.092C20.0539 29.0881 18.8055 28.54 17.8563 27.5495ZM18.0533 34.5594C17.6787 34.4658 17.3417 34.3032 17.1439 34.1683C17.3091 34.0906 17.603 33.9849 18.1127 33.88C20.5795 33.3721 20.9603 33.0138 21.7923 31.9574C21.9831 31.7153 22.1993 31.4407 22.4987 31.1063C22.4988 31.1061 22.499 31.1059 22.499 31.1059C22.9451 30.6066 23.149 30.6912 23.5189 30.8446C23.8188 30.9687 24.1107 31.3445 24.2292 31.7581C24.2851 31.9534 24.3481 32.3242 24.1423 32.6125C22.4044 35.0458 19.8721 35.0145 18.0533 34.5594ZM30.963 46.5726C27.9452 47.2192 26.8767 45.6795 26.1726 43.9193C25.7181 42.7828 25.4949 37.6584 25.6533 31.9994C25.6555 31.924 25.6447 31.8514 25.6239 31.783C25.6058 31.651 25.5781 31.5175 25.5396 31.3831C25.3039 30.5597 24.7297 29.8709 24.0408 29.5854C23.7671 29.472 23.2646 29.2639 22.6609 29.4183C22.7897 28.8879 23.013 28.289 23.255 27.6403L23.3565 27.3674C23.471 27.0598 23.6143 26.7411 23.7661 26.4039C24.586 24.5823 25.7089 22.0875 24.4902 16.4513C24.0337 14.3403 22.5094 13.3095 20.1984 13.5488C18.813 13.6922 17.5456 14.2512 16.9135 14.5717C16.7775 14.6405 16.6532 14.707 16.5371 14.7719C16.7135 12.6448 17.3802 8.66983 19.8738 6.15489C21.4437 4.5715 23.5347 3.78954 26.0823 3.83164C31.102 3.91388 34.321 6.48994 36.1376 8.63659C37.7029 10.4864 38.5506 12.3498 38.8889 13.3547C36.3449 13.0961 34.6146 13.5983 33.7375 14.8522C31.8293 17.5799 34.7814 22.8741 36.2003 25.4185C36.4604 25.8849 36.685 26.2879 36.7556 26.4591C37.2177 27.5788 37.8158 28.3264 38.2525 28.8721C38.3864 29.0393 38.5163 29.2015 38.615 29.3431C37.8445 29.5653 36.4605 30.0784 36.5866 32.6439C36.4848 33.9312 35.7614 39.9582 35.394 42.0876C34.909 44.9007 33.8737 45.9486 30.963 46.5726ZM43.5592 32.1578C42.7713 32.5236 41.4527 32.7979 40.2002 32.8568C38.8167 32.9217 38.1125 32.7018 37.9468 32.5667C37.8689 30.9681 38.4641 30.801 39.0938 30.6241C39.1928 30.5962 39.2893 30.5692 39.3825 30.5366C39.4405 30.5838 39.5039 30.6306 39.5733 30.6764C40.6853 31.4103 42.6687 31.4895 45.4686 30.9116C45.4789 30.9094 45.4891 30.9074 45.4994 30.9054C45.1218 31.2585 44.4755 31.7324 43.5592 32.1578Z" fill="white"/>
</g>
</g>
</svg>
