<svg width="50" height="50" viewBox="0 0 50 50" fill="none" xmlns="http://www.w3.org/2000/svg">
<g clip-path="url(#clip0_33_48)">
<path d="M24.7601 0.195312C12.0975 0.195313 12.8882 5.68656 12.8882 5.68656L12.9023 11.3754H24.9858V13.0835H8.10276C8.10276 13.0835 0 12.1646 0 24.9412C-9.03125e-07 37.7179 7.07227 37.2647 7.07227 37.2647H11.2931V31.3359C11.2931 31.3359 11.0655 24.2637 18.2524 24.2637H30.2371C30.2371 24.2637 36.9706 24.3725 36.9706 17.7561V6.81587C36.9706 6.81587 37.993 0.195312 24.7601 0.195312ZM18.0971 4.02083C19.2993 4.02083 20.271 4.99252 20.271 6.19475C20.271 7.39697 19.2993 8.36866 18.0971 8.36866C16.8949 8.36866 15.9232 7.39697 15.9232 6.19475C15.9232 4.99252 16.8949 4.02083 18.0971 4.02083Z" fill="url(#paint0_linear_33_48)"/>
<path d="M25.1196 49.8152C37.7822 49.8152 36.9915 44.324 36.9915 44.324L36.9773 38.6351H24.8937V36.927H41.7769C41.7769 36.927 49.8796 37.846 49.8796 25.0693C49.8796 12.2927 42.8074 12.7458 42.8074 12.7458H38.5866V18.6746C38.5866 18.6746 38.8141 25.7469 31.6272 25.7469H19.6424C19.6424 25.7469 12.9089 25.6381 12.9089 32.2545V43.1947C12.9089 43.1947 11.8867 49.8152 25.1196 49.8152ZM31.7825 45.9897C30.5803 45.9897 29.6085 45.0181 29.6085 43.8158C29.6085 42.6136 30.5803 41.6419 31.7825 41.6419C32.9847 41.6419 33.9564 42.6136 33.9564 43.8158C33.9564 45.0181 32.9847 45.9897 31.7825 45.9897Z" fill="url(#paint1_linear_33_48)"/>
</g>
<defs>
<linearGradient id="paint0_linear_33_48" x1="4.79353" y1="4.65849" x2="29.5121" y2="29.1305" gradientUnits="userSpaceOnUse">
<stop stop-color="#387EB8"/>
<stop offset="1" stop-color="#366994"/>
</linearGradient>
<linearGradient id="paint1_linear_33_48" x1="19.9658" y1="20.3727" x2="46.5108" y2="45.4667" gradientUnits="userSpaceOnUse">
<stop stop-color="#FFE052"/>
<stop offset="1" stop-color="#FFC331"/>
</linearGradient>
<clipPath id="clip0_33_48">
<rect width="50" height="50" fill="white"/>
</clipPath>
</defs>
</svg>
